<?xml version="1.0" standalone="no"?>
<!DOCTYPE svg PUBLIC "-//W3C//DTD SVG 20010904//EN"
 "http://www.w3.org/TR/2001/REC-SVG-20010904/DTD/svg10.dtd">
<svg version="1.0" xmlns="http://www.w3.org/2000/svg"
 width="482.000000pt" height="544.000000pt" viewBox="0 0 482.000000 544.000000"
 preserveAspectRatio="xMidYMid meet">

<g transform="translate(0.000000,544.000000) scale(0.100000,-0.100000)"
fill="#000000" stroke="none">
<path d="M1402 3283 c-106 -280 -192 -511 -192 -516 0 -4 64 -6 142 -5 l142 3
108 347 c59 191 113 377 121 414 l13 68 12 -60 c7 -32 60 -220 119 -416 l108
-358 148 0 c81 0 147 3 147 8 -1 4 -83 234 -184 512 l-183 505 -154 3 -154 2
-193 -507z"/>
<path d="M2925 3773 c-3 -10 -89 -234 -190 -498 -101 -264 -186 -488 -190
-497 -7 -17 4 -18 138 -18 l145 0 11 33 c87 273 213 692 223 740 l12 62 8 -50
c6 -45 222 -773 231 -782 3 -2 70 -2 150 -1 l145 3 -52 145 c-29 80 -113 310
-186 513 l-132 367 -153 0 c-136 0 -154 -2 -160 -17z"/>
<path d="M2075 2299 c-216 -32 -349 -143 -401 -336 -21 -80 -20 -271 1 -353
35 -135 110 -232 224 -289 121 -62 141 -64 644 -68 l457 -4 0 130 0 131 -433
0 c-355 0 -443 3 -492 15 -120 31 -183 103 -192 220 -13 160 61 261 215 294
34 7 202 11 477 11 l425 0 0 130 0 130 -432 -1 c-238 -1 -460 -5 -493 -10z"/>
</g>
</svg>
