<?xml version="1.0" standalone="no"?>
<!DOCTYPE svg PUBLIC "-//W3C//DTD SVG 20010904//EN"
 "http://www.w3.org/TR/2001/REC-SVG-20010904/DTD/svg10.dtd">
<svg version="1.0" xmlns="http://www.w3.org/2000/svg"
 width="544.000000pt" height="544.000000pt" viewBox="0 0 544.000000 544.000000"
 preserveAspectRatio="xMidYMid meet">
<metadata>
Created by potrace 1.11, written by Peter Selinger 2001-2013
</metadata>
<g transform="translate(0.000000,544.000000) scale(0.100000,-0.100000)"
fill="#000000" stroke="none">
<path d="M2545 4363 c-234 -25 -460 -90 -639 -181 -69 -36 -84 -45 -171 -101
-129 -83 -307 -240 -390 -345 -16 -21 -35 -43 -41 -50 -19 -21 -99 -140 -135
-201 -96 -164 -172 -368 -209 -567 -37 -192 -34 -480 5 -678 3 -14 8 -38 11
-54 3 -16 9 -37 14 -47 6 -10 10 -26 10 -36 0 -28 74 -214 126 -318 194 -385
547 -701 954 -853 84 -31 261 -79 323 -87 18 -3 57 -9 87 -14 59 -10 395 -8
445 3 17 3 57 11 90 17 84 14 88 15 105 22 8 3 38 11 65 18 28 6 56 16 63 22
6 5 12 7 12 4 0 -13 202 78 301 134 301 172 544 425 701 729 91 177 137 318
184 570 3 19 7 118 9 220 2 168 -4 250 -29 370 -3 14 -11 50 -17 80 -6 30 -27
98 -45 151 -250 718 -919 1198 -1667 1196 -72 0 -145 -2 -162 -4z"/>
</g>
</svg>
